#define lock_width 16
#define lock_height 21
const unsigned char lock_bits[42] PROGMEM = {
//static unsigned char lock_bits[] = {
   0xc0, 0x03, 0xf0, 0x0f, 0x78, 0x1e, 0x38, 0x1c, 0x18, 0x18, 0x1c, 0x38,
   0x1c, 0x38, 0x0c, 0x30, 0xfe, 0x7f, 0xff, 0xff, 0xff, 0xff, 0xff, 0xff,
   0x7f, 0xfe, 0x3f, 0xfc, 0x7f, 0xfe, 0x7f, 0xfe, 0x7f, 0xfe, 0xff, 0xff,
   0xff, 0xff, 0xff, 0xff, 0xfe, 0x7f };
